<svg width="155" height="153" viewBox="0 0 155 153" fill="none" xmlns="http://www.w3.org/2000/svg">
<path d="M35.8961 28.4423C40.8 28.4423 44.9192 24.3231 44.9192 19.4192C44.9192 14.5154 40.8 10.3962 35.8961 10.3962C30.9923 10.3962 26.8731 14.5154 26.8731 19.4192C26.8731 24.3231 30.9923 28.4423 35.8961 28.4423ZM30.9923 92.1923C30.9923 93.5654 32.1692 94.7423 33.5423 94.7423C34.9154 94.7423 36.0923 93.5654 36.0923 92.1923C36.0923 90.8192 34.9154 89.6423 33.5423 89.6423C32.1692 89.6423 30.9923 90.8192 30.9923 92.1923ZM49.0385 39.8192C51.1962 39.8192 52.7654 38.0538 52.7654 36.0923C52.7654 33.9346 51 32.3654 49.0385 32.3654C46.8808 32.3654 45.3115 34.1308 45.3115 36.0923C45.3115 38.0538 46.8808 39.8192 49.0385 39.8192ZM19.4192 73.7538C24.3231 73.7538 28.4423 69.6346 28.4423 64.7308C28.4423 59.8269 24.3231 55.7077 19.4192 55.7077C14.5154 55.7077 10.3962 59.8269 10.3962 64.7308C10.5923 69.6346 14.5154 73.7538 19.4192 73.7538ZM6.47308 52.5692C8.63077 52.5692 10.2 50.8038 10.2 48.8423C10.2 46.6846 8.43462 45.1154 6.47308 45.1154C4.31538 45.1154 2.74615 46.8808 2.74615 48.8423C2.74615 51 4.31538 52.5692 6.47308 52.5692ZM5.1 60.8077C5.1 59.4346 3.92308 58.2577 2.55 58.2577C1.17692 58.2577 0 59.4346 0 60.8077C0 62.1808 1.17692 63.3577 2.55 63.3577C3.92308 63.3577 5.1 62.1808 5.1 60.8077ZM17.0654 39.6231C20.5962 39.6231 23.3423 36.8769 23.3423 33.3462C23.3423 29.8154 20.5962 27.0692 17.0654 27.0692C13.5346 27.0692 10.7885 29.8154 10.7885 33.3462C10.7885 36.8769 13.5346 39.6231 17.0654 39.6231ZM93.3692 5.1C94.7423 5.1 95.9192 3.92308 95.9192 2.55C95.9192 1.17692 94.7423 0 93.3692 0C91.9961 0 90.8192 1.17692 90.8192 2.55C90.8192 3.92308 91.9961 5.1 93.3692 5.1ZM24.7154 91.2115C24.7154 85.1308 19.8115 80.2269 13.7308 80.2269C7.65 80.2269 2.74615 85.1308 2.74615 91.2115C2.74615 97.2923 7.65 102.196 13.7308 102.196C19.8115 102.196 24.7154 97.2923 24.7154 91.2115ZM134.758 44.9192C139.662 44.9192 143.781 40.8 143.781 35.8962C143.781 30.9923 139.662 26.8731 134.758 26.8731C129.854 26.8731 125.735 30.9923 125.735 35.8962C125.735 40.8 129.658 44.9192 134.758 44.9192ZM114.554 106.904C114.554 110.435 117.3 113.181 120.831 113.181C124.362 113.181 127.108 110.435 127.108 106.904C127.108 103.373 124.362 100.627 120.831 100.627C117.3 100.627 114.554 103.373 114.554 106.904ZM120.831 23.3423C124.362 23.3423 127.108 20.5962 127.108 17.0654C127.108 13.5346 124.362 10.7885 120.831 10.7885C117.3 10.7885 114.554 13.5346 114.554 17.0654C114.554 20.5962 117.3 23.3423 120.831 23.3423ZM106.904 39.6231C110.435 39.6231 113.181 36.8769 113.181 33.3462C113.181 29.8154 110.435 27.0692 106.904 27.0692C103.373 27.0692 100.627 29.8154 100.627 33.3462C100.627 36.8769 103.373 39.6231 106.904 39.6231ZM129.462 61.7885C129.462 67.8692 134.365 72.7731 140.446 72.7731C146.527 72.7731 151.431 67.8692 151.431 61.7885C151.431 55.7077 146.527 50.8038 140.446 50.8038C134.365 50.8038 129.462 55.7077 129.462 61.7885ZM123.185 60.8077C123.185 59.4346 122.008 58.2577 120.635 58.2577C119.262 58.2577 118.085 59.4346 118.085 60.8077C118.085 62.1808 119.262 63.3577 120.635 63.3577C122.008 63.3577 123.185 62.1808 123.185 60.8077ZM105.138 10.0038C107.296 10.0038 108.865 8.23846 108.865 6.27692C108.865 4.31538 107.1 2.55 105.138 2.55C102.981 2.55 101.412 4.31538 101.412 6.27692C101.412 8.23846 103.177 10.0038 105.138 10.0038ZM116.908 52.5692C119.065 52.5692 120.635 50.8038 120.635 48.8423C120.635 46.6846 118.869 45.1154 116.908 45.1154C114.946 45.1154 113.181 46.8808 113.181 48.8423C113.181 51 114.946 52.5692 116.908 52.5692ZM39.6231 46.0962C39.6231 42.5654 36.8769 39.8192 33.3462 39.8192C29.8154 39.8192 27.0692 42.5654 27.0692 46.0962C27.0692 49.6269 29.8154 52.3731 33.3462 52.3731C36.8769 52.3731 39.6231 49.6269 39.6231 46.0962ZM105.138 113.181C102.981 113.181 101.412 114.946 101.412 116.908C101.412 119.065 103.177 120.635 105.138 120.635C107.296 120.635 108.865 118.869 108.865 116.908C108.865 114.946 107.296 113.181 105.138 113.181ZM92.3885 128.285C86.3077 128.285 81.4038 133.188 81.4038 139.269C81.4038 145.35 86.3077 150.254 92.3885 150.254C98.4692 150.254 103.373 145.35 103.373 139.269C103.373 133.188 98.4692 128.285 92.3885 128.285ZM118.281 124.558C113.377 124.558 109.258 128.677 109.258 133.581C109.258 138.485 113.377 142.604 118.281 142.604C123.185 142.604 127.304 138.485 127.304 133.581C127.304 128.677 123.185 124.558 118.281 124.558ZM90.8192 120.635C90.8192 122.008 91.9961 123.185 93.3692 123.185C94.7423 123.185 95.9192 122.008 95.9192 120.635C95.9192 119.262 94.7423 118.085 93.3692 118.085C91.9961 118.281 90.8192 119.262 90.8192 120.635ZM151.627 89.6423C150.254 89.6423 149.077 90.8192 149.077 92.1923C149.077 93.5654 150.254 94.7423 151.627 94.7423C153 94.7423 154.177 93.5654 154.177 92.1923C154.177 90.8192 152.804 89.6423 151.627 89.6423ZM147.704 100.431C145.546 100.431 143.977 102.196 143.977 104.158C143.977 106.315 145.742 107.885 147.704 107.885C149.862 107.885 151.431 106.119 151.431 104.158C151.431 102 149.862 100.431 147.704 100.431ZM88.2692 28.4423C93.1731 28.4423 97.2923 24.3231 97.2923 19.4192C97.2923 14.5154 93.1731 10.3962 88.2692 10.3962C83.3654 10.3962 79.2461 14.5154 79.2461 19.4192C79.2461 24.3231 83.3654 28.4423 88.2692 28.4423ZM134.758 79.2462C129.854 79.2462 125.735 83.3654 125.735 88.2692C125.735 93.1731 129.854 97.2923 134.758 97.2923C139.662 97.2923 143.781 93.1731 143.781 88.2692C143.585 83.3654 139.662 79.2462 134.758 79.2462ZM19.4192 108.081C14.5154 108.081 10.3962 112.2 10.3962 117.104C10.3962 122.008 14.5154 126.127 19.4192 126.127C24.3231 126.127 28.4423 122.008 28.4423 117.104C28.4423 112.2 24.5192 108.081 19.4192 108.081ZM137.112 113.377C133.581 113.377 130.835 116.123 130.835 119.654C130.835 123.185 133.581 125.931 137.112 125.931C140.642 125.931 143.388 123.185 143.388 119.654C143.388 116.123 140.642 113.377 137.112 113.377ZM37.2692 100.431C35.1115 100.431 33.5423 102.196 33.5423 104.158C33.5423 106.315 35.3077 107.885 37.2692 107.885C39.2308 107.885 40.9961 106.119 40.9961 104.158C40.9961 102 39.2308 100.431 37.2692 100.431ZM47.2731 113.377C43.7423 113.377 40.9961 116.123 40.9961 119.654C40.9961 123.185 43.7423 125.931 47.2731 125.931C50.8038 125.931 53.55 123.185 53.55 119.654C53.55 116.123 50.8038 113.377 47.2731 113.377ZM49.0385 142.996C46.8808 142.996 45.3115 144.762 45.3115 146.723C45.3115 148.685 47.0769 150.45 49.0385 150.45C51.1962 150.45 52.7654 148.685 52.7654 146.723C52.7654 144.762 51 142.996 49.0385 142.996ZM33.3462 129.658C29.8154 129.658 27.0692 132.404 27.0692 135.935C27.0692 139.465 29.8154 142.212 33.3462 142.212C36.8769 142.212 39.6231 139.465 39.6231 135.935C39.6231 132.404 36.8769 129.658 33.3462 129.658ZM58.4538 32.3654C58.4538 33.7385 59.6308 34.9154 61.0038 34.9154C62.3769 34.9154 63.5538 33.7385 63.5538 32.3654C63.5538 30.9923 62.3769 29.8154 61.0038 29.8154C59.4346 29.8154 58.4538 30.9923 58.4538 32.3654ZM72.7731 13.5346C72.7731 7.45385 67.8692 2.55 61.7885 2.55C55.7077 2.55 50.8038 7.45385 50.8038 13.5346C50.8038 19.6154 55.7077 24.5192 61.7885 24.5192C67.8692 24.7154 72.7731 19.8115 72.7731 13.5346ZM60.8077 147.9C59.4346 147.9 58.2577 149.077 58.2577 150.45C58.2577 151.823 59.4346 153 60.8077 153C62.1808 153 63.3577 151.823 63.3577 150.45C63.3577 149.077 62.1808 147.9 60.8077 147.9ZM65.9077 124.558C61.0038 124.558 56.8846 128.677 56.8846 133.581C56.8846 138.485 61.0038 142.604 65.9077 142.604C70.8115 142.604 74.9308 138.485 74.9308 133.581C74.9308 128.677 70.8115 124.558 65.9077 124.558Z" fill="url(#paint0_linear_746_5)"/>
<defs>
<linearGradient id="paint0_linear_746_5" x1="0" y1="0" x2="154.177" y2="0" gradientUnits="userSpaceOnUse">
<stop stop-color="#284595"/>
<stop offset="1" stop-color="#03A6E8"/>
</linearGradient>
</defs>
</svg>
